<mxfile host="app.diagrams.net" agent="Mozilla/5.0 (Macintosh; Intel Mac OS X 10_15_7) AppleWebKit/537.36 (KHTML, like Gecko) Chrome/134.0.0.0 Safari/537.36" version="26.2.8">
  <diagram name="페이지-1" id="PKHCjFHhKtMede023YYh">
    <mxGraphModel dx="4280" dy="2743" grid="1" gridSize="10" guides="1" tooltips="1" connect="1" arrows="1" fold="1" page="1" pageScale="1" pageWidth="1169" pageHeight="827" math="0" shadow="0">
      <root>
        <mxCell id="0" />
        <mxCell id="1" parent="0" />
        <mxCell id="m1knhJvUVvAIt7_T2dCM-214" value="" style="rounded=0;whiteSpace=wrap;html=1;" parent="1" vertex="1">
          <mxGeometry x="-2220" y="-1560" width="1850" height="1320" as="geometry" />
        </mxCell>
        <mxCell id="szpw3MNMhI2yVc2b8Nyr-181" value="&lt;font style=&quot;font-size: 72px;&quot;&gt;StockAI&lt;/font&gt;" style="text;html=1;align=right;verticalAlign=middle;whiteSpace=wrap;rounded=0;" parent="1" vertex="1">
          <mxGeometry x="-2000" y="-1520" width="60" height="30" as="geometry" />
        </mxCell>
        <mxCell id="m1knhJvUVvAIt7_T2dCM-74" value="Users" style="sketch=0;outlineConnect=0;fontColor=#232F3E;gradientColor=none;fillColor=#232F3D;strokeColor=none;dashed=0;verticalLabelPosition=bottom;verticalAlign=top;align=center;html=1;fontSize=12;fontStyle=0;aspect=fixed;pointerEvents=1;shape=mxgraph.aws4.users;" parent="1" vertex="1">
          <mxGeometry x="-1939.9950817838444" y="-1256.0355978260873" width="31.25" height="31.25" as="geometry" />
        </mxCell>
        <mxCell id="m1knhJvUVvAIt7_T2dCM-77" value="P리전(AWS)" style="points=[[0,0],[0.25,0],[0.5,0],[0.75,0],[1,0],[1,0.25],[1,0.5],[1,0.75],[1,1],[0.75,1],[0.5,1],[0.25,1],[0,1],[0,0.75],[0,0.5],[0,0.25]];outlineConnect=0;gradientColor=none;html=1;whiteSpace=wrap;fontSize=12;fontStyle=0;container=1;pointerEvents=0;collapsible=0;recursiveResize=0;shape=mxgraph.aws4.group;grIcon=mxgraph.aws4.group_region;strokeColor=#00BCBF;fillColor=none;verticalAlign=top;align=left;spacingLeft=30;fontColor=#147EBA;dashed=1;" parent="1" vertex="1">
          <mxGeometry x="-1870" y="-1400" width="1220" height="1090" as="geometry" />
        </mxCell>
        <mxCell id="m1knhJvUVvAIt7_T2dCM-4" value="VPC" style="points=[[0,0],[0.25,0],[0.5,0],[0.75,0],[1,0],[1,0.25],[1,0.5],[1,0.75],[1,1],[0.75,1],[0.5,1],[0.25,1],[0,1],[0,0.75],[0,0.5],[0,0.25]];outlineConnect=0;gradientColor=none;html=1;whiteSpace=wrap;fontSize=12;fontStyle=0;container=1;pointerEvents=0;collapsible=0;recursiveResize=0;shape=mxgraph.aws4.group;grIcon=mxgraph.aws4.group_vpc2;strokeColor=#8C4FFF;fillColor=none;verticalAlign=top;align=left;spacingLeft=30;fontColor=#AAB7B8;dashed=0;" parent="m1knhJvUVvAIt7_T2dCM-77" vertex="1">
          <mxGeometry x="278" y="60" width="912" height="530" as="geometry" />
        </mxCell>
        <mxCell id="m1knhJvUVvAIt7_T2dCM-207" value="Private subnet" style="points=[[0,0],[0.25,0],[0.5,0],[0.75,0],[1,0],[1,0.25],[1,0.5],[1,0.75],[1,1],[0.75,1],[0.5,1],[0.25,1],[0,1],[0,0.75],[0,0.5],[0,0.25]];outlineConnect=0;gradientColor=none;html=1;whiteSpace=wrap;fontSize=12;fontStyle=0;container=1;pointerEvents=0;collapsible=0;recursiveResize=0;shape=mxgraph.aws4.group;grIcon=mxgraph.aws4.group_security_group;grStroke=0;strokeColor=#00A4A6;fillColor=#E6F6F7;verticalAlign=top;align=left;spacingLeft=30;fontColor=#147EBA;dashed=0;" parent="m1knhJvUVvAIt7_T2dCM-4" vertex="1">
          <mxGeometry x="88" y="34.59" width="760" height="475.41" as="geometry" />
        </mxCell>
        <mxCell id="m1knhJvUVvAIt7_T2dCM-167" value="" style="edgeStyle=orthogonalEdgeStyle;rounded=0;orthogonalLoop=1;jettySize=auto;html=1;" parent="m1knhJvUVvAIt7_T2dCM-207" source="m1knhJvUVvAIt7_T2dCM-1" target="m1knhJvUVvAIt7_T2dCM-65" edge="1">
          <mxGeometry relative="1" as="geometry">
            <mxPoint x="411.75" y="65.25" as="targetPoint" />
          </mxGeometry>
        </mxCell>
        <mxCell id="m1knhJvUVvAIt7_T2dCM-171" style="edgeStyle=orthogonalEdgeStyle;rounded=0;orthogonalLoop=1;jettySize=auto;html=1;startArrow=classic;startFill=1;" parent="m1knhJvUVvAIt7_T2dCM-207" source="m1knhJvUVvAIt7_T2dCM-1" target="m1knhJvUVvAIt7_T2dCM-62" edge="1">
          <mxGeometry relative="1" as="geometry" />
        </mxCell>
        <mxCell id="m1knhJvUVvAIt7_T2dCM-1" value="ALB" style="outlineConnect=0;dashed=0;verticalLabelPosition=bottom;verticalAlign=top;align=center;html=1;shape=mxgraph.aws3.application_load_balancer;fillColor=#F58536;gradientColor=none;" parent="m1knhJvUVvAIt7_T2dCM-207" vertex="1">
          <mxGeometry x="190" y="39.999999999999886" width="50" height="50" as="geometry" />
        </mxCell>
        <mxCell id="m1knhJvUVvAIt7_T2dCM-21" value="S3" style="sketch=0;points=[[0,0,0],[0.25,0,0],[0.5,0,0],[0.75,0,0],[1,0,0],[0,1,0],[0.25,1,0],[0.5,1,0],[0.75,1,0],[1,1,0],[0,0.25,0],[0,0.5,0],[0,0.75,0],[1,0.25,0],[1,0.5,0],[1,0.75,0]];outlineConnect=0;fontColor=#232F3E;fillColor=#7AA116;strokeColor=#ffffff;dashed=0;verticalLabelPosition=bottom;verticalAlign=top;align=center;html=1;fontSize=12;fontStyle=0;aspect=fixed;shape=mxgraph.aws4.resourceIcon;resIcon=mxgraph.aws4.s3;direction=east;" parent="m1knhJvUVvAIt7_T2dCM-207" vertex="1">
          <mxGeometry x="376.75" y="175.65999999999988" width="50" height="50" as="geometry" />
        </mxCell>
        <mxCell id="m1knhJvUVvAIt7_T2dCM-26" value="Open Search" style="sketch=0;points=[[0,0,0],[0.25,0,0],[0.5,0,0],[0.75,0,0],[1,0,0],[0,1,0],[0.25,1,0],[0.5,1,0],[0.75,1,0],[1,1,0],[0,0.25,0],[0,0.5,0],[0,0.75,0],[1,0.25,0],[1,0.5,0],[1,0.75,0]];outlineConnect=0;fontColor=#232F3E;fillColor=#8C4FFF;strokeColor=#ffffff;dashed=0;verticalLabelPosition=bottom;verticalAlign=top;align=center;html=1;fontSize=12;fontStyle=0;aspect=fixed;shape=mxgraph.aws4.resourceIcon;resIcon=mxgraph.aws4.elasticsearch_service;direction=south;" parent="m1knhJvUVvAIt7_T2dCM-207" vertex="1">
          <mxGeometry x="586.75" y="175.65999999999985" width="50" height="50" as="geometry" />
        </mxCell>
        <mxCell id="m1knhJvUVvAIt7_T2dCM-181" style="edgeStyle=orthogonalEdgeStyle;rounded=0;orthogonalLoop=1;jettySize=auto;html=1;exitX=1;exitY=0.25;exitDx=0;exitDy=0;startArrow=classic;startFill=1;" parent="m1knhJvUVvAIt7_T2dCM-207" source="m1knhJvUVvAIt7_T2dCM-62" target="m1knhJvUVvAIt7_T2dCM-26" edge="1">
          <mxGeometry relative="1" as="geometry" />
        </mxCell>
        <mxCell id="m1knhJvUVvAIt7_T2dCM-168" style="edgeStyle=orthogonalEdgeStyle;rounded=0;orthogonalLoop=1;jettySize=auto;html=1;exitX=0;exitY=0.75;exitDx=0;exitDy=0;exitPerimeter=0;startArrow=none;startFill=0;" parent="m1knhJvUVvAIt7_T2dCM-207" source="m1knhJvUVvAIt7_T2dCM-65" target="m1knhJvUVvAIt7_T2dCM-21" edge="1">
          <mxGeometry relative="1" as="geometry" />
        </mxCell>
        <mxCell id="m1knhJvUVvAIt7_T2dCM-65" value="Lambda" style="sketch=0;points=[[0,0,0],[0.25,0,0],[0.5,0,0],[0.75,0,0],[1,0,0],[0,1,0],[0.25,1,0],[0.5,1,0],[0.75,1,0],[1,1,0],[0,0.25,0],[0,0.5,0],[0,0.75,0],[1,0.25,0],[1,0.5,0],[1,0.75,0]];outlineConnect=0;fontColor=#232F3E;fillColor=#ED7100;strokeColor=#ffffff;dashed=0;verticalLabelPosition=bottom;verticalAlign=top;align=center;html=1;fontSize=12;fontStyle=0;aspect=fixed;shape=mxgraph.aws4.resourceIcon;resIcon=mxgraph.aws4.lambda;" parent="m1knhJvUVvAIt7_T2dCM-207" vertex="1">
          <mxGeometry x="480.25" y="39.99999999999986" width="50" height="50" as="geometry" />
        </mxCell>
        <mxCell id="m1knhJvUVvAIt7_T2dCM-147" style="edgeStyle=orthogonalEdgeStyle;rounded=0;orthogonalLoop=1;jettySize=auto;html=1;exitX=0.5;exitY=1;exitDx=0;exitDy=0;exitPerimeter=0;" parent="m1knhJvUVvAIt7_T2dCM-207" source="m1knhJvUVvAIt7_T2dCM-65" target="m1knhJvUVvAIt7_T2dCM-65" edge="1">
          <mxGeometry relative="1" as="geometry" />
        </mxCell>
        <mxCell id="m1knhJvUVvAIt7_T2dCM-169" style="edgeStyle=orthogonalEdgeStyle;rounded=0;orthogonalLoop=1;jettySize=auto;html=1;exitX=1;exitY=0.75;exitDx=0;exitDy=0;exitPerimeter=0;entryX=0;entryY=0.5;entryDx=0;entryDy=0;entryPerimeter=0;" parent="m1knhJvUVvAIt7_T2dCM-207" source="m1knhJvUVvAIt7_T2dCM-65" target="m1knhJvUVvAIt7_T2dCM-26" edge="1">
          <mxGeometry relative="1" as="geometry" />
        </mxCell>
        <mxCell id="m1knhJvUVvAIt7_T2dCM-180" style="edgeStyle=orthogonalEdgeStyle;rounded=0;orthogonalLoop=1;jettySize=auto;html=1;" parent="m1knhJvUVvAIt7_T2dCM-207" source="m1knhJvUVvAIt7_T2dCM-178" target="m1knhJvUVvAIt7_T2dCM-26" edge="1">
          <mxGeometry relative="1" as="geometry" />
        </mxCell>
        <mxCell id="m1knhJvUVvAIt7_T2dCM-178" value="Event Bidge" style="sketch=0;points=[[0,0,0],[0.25,0,0],[0.5,0,0],[0.75,0,0],[1,0,0],[0,1,0],[0.25,1,0],[0.5,1,0],[0.75,1,0],[1,1,0],[0,0.25,0],[0,0.5,0],[0,0.75,0],[1,0.25,0],[1,0.5,0],[1,0.75,0]];outlineConnect=0;fontColor=#232F3E;fillColor=#E7157B;strokeColor=#ffffff;dashed=0;verticalLabelPosition=bottom;verticalAlign=top;align=center;html=1;fontSize=12;fontStyle=0;aspect=fixed;shape=mxgraph.aws4.resourceIcon;resIcon=mxgraph.aws4.eventbridge;" parent="m1knhJvUVvAIt7_T2dCM-207" vertex="1">
          <mxGeometry x="480.25" y="175.65999999999985" width="50" height="50" as="geometry" />
        </mxCell>
        <mxCell id="m1knhJvUVvAIt7_T2dCM-179" style="edgeStyle=orthogonalEdgeStyle;rounded=0;orthogonalLoop=1;jettySize=auto;html=1;entryX=0;entryY=0.5;entryDx=0;entryDy=0;entryPerimeter=0;" parent="m1knhJvUVvAIt7_T2dCM-207" source="m1knhJvUVvAIt7_T2dCM-21" target="m1knhJvUVvAIt7_T2dCM-178" edge="1">
          <mxGeometry relative="1" as="geometry" />
        </mxCell>
        <mxCell id="m1knhJvUVvAIt7_T2dCM-62" value="Auto Scaling group" style="points=[[0,0],[0.25,0],[0.5,0],[0.75,0],[1,0],[1,0.25],[1,0.5],[1,0.75],[1,1],[0.75,1],[0.5,1],[0.25,1],[0,1],[0,0.75],[0,0.5],[0,0.25]];outlineConnect=0;gradientColor=none;html=1;whiteSpace=wrap;fontSize=12;fontStyle=0;container=1;pointerEvents=0;collapsible=0;recursiveResize=0;shape=mxgraph.aws4.groupCenter;grIcon=mxgraph.aws4.group_auto_scaling_group;grStroke=1;strokeColor=#D86613;fillColor=none;verticalAlign=top;align=center;fontColor=#D86613;dashed=1;spacingTop=25;" parent="m1knhJvUVvAIt7_T2dCM-207" vertex="1">
          <mxGeometry x="30" y="255.66" width="370" height="199" as="geometry" />
        </mxCell>
        <mxCell id="m1knhJvUVvAIt7_T2dCM-17" value="StockAI API&lt;div&gt;(EC2/ECS 컨테이너)&lt;div&gt;&lt;br&gt;&lt;/div&gt;&lt;/div&gt;" style="sketch=0;points=[[0,0,0],[0.25,0,0],[0.5,0,0],[0.75,0,0],[1,0,0],[0,1,0],[0.25,1,0],[0.5,1,0],[0.75,1,0],[1,1,0],[0,0.25,0],[0,0.5,0],[0,0.75,0],[1,0.25,0],[1,0.5,0],[1,0.75,0]];outlineConnect=0;fontColor=#232F3E;fillColor=#ED7100;strokeColor=#ffffff;dashed=0;verticalLabelPosition=bottom;verticalAlign=top;align=center;html=1;fontSize=12;fontStyle=0;aspect=fixed;shape=mxgraph.aws4.resourceIcon;resIcon=mxgraph.aws4.ecs;" parent="m1knhJvUVvAIt7_T2dCM-62" vertex="1">
          <mxGeometry x="160" y="74.5" width="50" height="50" as="geometry" />
        </mxCell>
        <mxCell id="m1knhJvUVvAIt7_T2dCM-63" value="Invest API&lt;div&gt;(EC2/ECS 컨테이너)&lt;/div&gt;" style="sketch=0;points=[[0,0,0],[0.25,0,0],[0.5,0,0],[0.75,0,0],[1,0,0],[0,1,0],[0.25,1,0],[0.5,1,0],[0.75,1,0],[1,1,0],[0,0.25,0],[0,0.5,0],[0,0.75,0],[1,0.25,0],[1,0.5,0],[1,0.75,0]];outlineConnect=0;fontColor=#232F3E;fillColor=#ED7100;strokeColor=#ffffff;dashed=0;verticalLabelPosition=bottom;verticalAlign=top;align=center;html=1;fontSize=12;fontStyle=0;aspect=fixed;shape=mxgraph.aws4.resourceIcon;resIcon=mxgraph.aws4.ecs;" parent="m1knhJvUVvAIt7_T2dCM-62" vertex="1">
          <mxGeometry x="40" y="75" width="50" height="50" as="geometry" />
        </mxCell>
        <mxCell id="m1knhJvUVvAIt7_T2dCM-210" value="&lt;div&gt;&lt;div&gt;TR/HTTP Proxy&lt;div&gt;(EC2/ECS 컨테이너)&lt;/div&gt;&lt;/div&gt;&lt;/div&gt;" style="sketch=0;points=[[0,0,0],[0.25,0,0],[0.5,0,0],[0.75,0,0],[1,0,0],[0,1,0],[0.25,1,0],[0.5,1,0],[0.75,1,0],[1,1,0],[0,0.25,0],[0,0.5,0],[0,0.75,0],[1,0.25,0],[1,0.5,0],[1,0.75,0]];outlineConnect=0;fontColor=#232F3E;fillColor=#ED7100;strokeColor=#ffffff;dashed=0;verticalLabelPosition=bottom;verticalAlign=top;align=center;html=1;fontSize=12;fontStyle=0;aspect=fixed;shape=mxgraph.aws4.resourceIcon;resIcon=mxgraph.aws4.ecs;" parent="m1knhJvUVvAIt7_T2dCM-62" vertex="1">
          <mxGeometry x="286" y="74.5" width="50" height="50" as="geometry" />
        </mxCell>
        <mxCell id="m1knhJvUVvAIt7_T2dCM-212" style="edgeStyle=orthogonalEdgeStyle;rounded=0;orthogonalLoop=1;jettySize=auto;html=1;entryX=0;entryY=0.5;entryDx=0;entryDy=0;entryPerimeter=0;" parent="m1knhJvUVvAIt7_T2dCM-62" source="m1knhJvUVvAIt7_T2dCM-17" target="m1knhJvUVvAIt7_T2dCM-210" edge="1">
          <mxGeometry relative="1" as="geometry" />
        </mxCell>
        <mxCell id="m1knhJvUVvAIt7_T2dCM-202" value="NLB(고정IP)" style="outlineConnect=0;dashed=0;verticalLabelPosition=bottom;verticalAlign=top;align=center;html=1;shape=mxgraph.aws3.classic_load_balancer;fillColor=#F58534;gradientColor=none;aspect=fixed;" parent="m1knhJvUVvAIt7_T2dCM-207" vertex="1">
          <mxGeometry x="54" y="39.000000000000085" width="49.83" height="52" as="geometry" />
        </mxCell>
        <mxCell id="m1knhJvUVvAIt7_T2dCM-204" style="edgeStyle=orthogonalEdgeStyle;rounded=0;orthogonalLoop=1;jettySize=auto;html=1;entryX=0;entryY=0.5;entryDx=0;entryDy=0;entryPerimeter=0;" parent="m1knhJvUVvAIt7_T2dCM-207" source="m1knhJvUVvAIt7_T2dCM-202" target="m1knhJvUVvAIt7_T2dCM-1" edge="1">
          <mxGeometry relative="1" as="geometry" />
        </mxCell>
        <mxCell id="m1knhJvUVvAIt7_T2dCM-70" value="VPC Link" style="sketch=0;points=[[0,0,0],[0.25,0,0],[0.5,0,0],[0.75,0,0],[1,0,0],[0,1,0],[0.25,1,0],[0.5,1,0],[0.75,1,0],[1,1,0],[0,0.25,0],[0,0.5,0],[0,0.75,0],[1,0.25,0],[1,0.5,0],[1,0.75,0]];outlineConnect=0;fontColor=#232F3E;fillColor=#8C4FFF;strokeColor=#ffffff;dashed=0;verticalLabelPosition=bottom;verticalAlign=top;align=center;html=1;fontSize=12;fontStyle=0;aspect=fixed;shape=mxgraph.aws4.resourceIcon;resIcon=mxgraph.aws4.vpc;" parent="m1knhJvUVvAIt7_T2dCM-4" vertex="1">
          <mxGeometry x="-23.340000000000032" y="76.34000000000015" width="46.5" height="46.5" as="geometry" />
        </mxCell>
        <mxCell id="m1knhJvUVvAIt7_T2dCM-203" style="edgeStyle=orthogonalEdgeStyle;rounded=0;orthogonalLoop=1;jettySize=auto;html=1;entryX=0;entryY=0.5;entryDx=0;entryDy=0;entryPerimeter=0;" parent="m1knhJvUVvAIt7_T2dCM-4" source="m1knhJvUVvAIt7_T2dCM-70" target="m1knhJvUVvAIt7_T2dCM-202" edge="1">
          <mxGeometry relative="1" as="geometry" />
        </mxCell>
        <mxCell id="m1knhJvUVvAIt7_T2dCM-75" value="API Gateway" style="sketch=0;points=[[0,0,0],[0.25,0,0],[0.5,0,0],[0.75,0,0],[1,0,0],[0,1,0],[0.25,1,0],[0.5,1,0],[0.75,1,0],[1,1,0],[0,0.25,0],[0,0.5,0],[0,0.75,0],[1,0.25,0],[1,0.5,0],[1,0.75,0]];outlineConnect=0;fontColor=#232F3E;fillColor=#8C4FFF;strokeColor=#ffffff;dashed=0;verticalLabelPosition=bottom;verticalAlign=top;align=center;html=1;fontSize=12;fontStyle=0;aspect=fixed;shape=mxgraph.aws4.resourceIcon;resIcon=mxgraph.aws4.api_gateway;" parent="m1knhJvUVvAIt7_T2dCM-77" vertex="1">
          <mxGeometry x="79.99866469965082" y="134.5864256198347" width="50" height="50" as="geometry" />
        </mxCell>
        <mxCell id="m1knhJvUVvAIt7_T2dCM-80" style="edgeStyle=orthogonalEdgeStyle;rounded=0;orthogonalLoop=1;jettySize=auto;html=1;entryX=0;entryY=0.5;entryDx=0;entryDy=0;entryPerimeter=0;" parent="m1knhJvUVvAIt7_T2dCM-77" source="m1knhJvUVvAIt7_T2dCM-75" target="m1knhJvUVvAIt7_T2dCM-70" edge="1">
          <mxGeometry relative="1" as="geometry" />
        </mxCell>
        <mxCell id="m1knhJvUVvAIt7_T2dCM-81" value="Secrets Manager" style="sketch=0;points=[[0,0,0],[0.25,0,0],[0.5,0,0],[0.75,0,0],[1,0,0],[0,1,0],[0.25,1,0],[0.5,1,0],[0.75,1,0],[1,1,0],[0,0.25,0],[0,0.5,0],[0,0.75,0],[1,0.25,0],[1,0.5,0],[1,0.75,0]];outlineConnect=0;fontColor=#232F3E;fillColor=#DD344C;strokeColor=#ffffff;dashed=0;verticalLabelPosition=bottom;verticalAlign=top;align=center;html=1;fontSize=12;fontStyle=0;aspect=fixed;shape=mxgraph.aws4.resourceIcon;resIcon=mxgraph.aws4.secrets_manager;" parent="m1knhJvUVvAIt7_T2dCM-77" vertex="1">
          <mxGeometry x="80" y="250" width="50" height="50" as="geometry" />
        </mxCell>
        <mxCell id="m1knhJvUVvAIt7_T2dCM-82" value="Route 53" style="sketch=0;points=[[0,0,0],[0.25,0,0],[0.5,0,0],[0.75,0,0],[1,0,0],[0,1,0],[0.25,1,0],[0.5,1,0],[0.75,1,0],[1,1,0],[0,0.25,0],[0,0.5,0],[0,0.75,0],[1,0.25,0],[1,0.5,0],[1,0.75,0]];outlineConnect=0;fontColor=#232F3E;fillColor=#8C4FFF;strokeColor=#ffffff;dashed=0;verticalLabelPosition=bottom;verticalAlign=top;align=center;html=1;fontSize=12;fontStyle=0;aspect=fixed;shape=mxgraph.aws4.resourceIcon;resIcon=mxgraph.aws4.route_53;" parent="m1knhJvUVvAIt7_T2dCM-77" vertex="1">
          <mxGeometry x="80" y="370" width="50" height="50" as="geometry" />
        </mxCell>
        <mxCell id="m1knhJvUVvAIt7_T2dCM-93" style="edgeStyle=orthogonalEdgeStyle;rounded=0;orthogonalLoop=1;jettySize=auto;html=1;entryX=1;entryY=0.5;entryDx=0;entryDy=0;entryPerimeter=0;" parent="m1knhJvUVvAIt7_T2dCM-77" source="m1knhJvUVvAIt7_T2dCM-70" target="m1knhJvUVvAIt7_T2dCM-75" edge="1">
          <mxGeometry relative="1" as="geometry" />
        </mxCell>
        <mxCell id="m1knhJvUVvAIt7_T2dCM-130" value="AWS Seoul Region" style="points=[[0,0],[0.25,0],[0.5,0],[0.75,0],[1,0],[1,0.25],[1,0.5],[1,0.75],[1,1],[0.75,1],[0.5,1],[0.25,1],[0,1],[0,0.75],[0,0.5],[0,0.25]];outlineConnect=0;gradientColor=none;html=1;whiteSpace=wrap;fontSize=12;fontStyle=0;container=1;pointerEvents=0;collapsible=0;recursiveResize=0;shape=mxgraph.aws4.group;grIcon=mxgraph.aws4.group_region;strokeColor=#00A4A6;fillColor=none;verticalAlign=top;align=left;spacingLeft=30;fontColor=#147EBA;dashed=1;" parent="m1knhJvUVvAIt7_T2dCM-77" vertex="1">
          <mxGeometry x="491.5" y="635" width="170" height="140" as="geometry" />
        </mxCell>
        <mxCell id="m1knhJvUVvAIt7_T2dCM-131" value="Bedrock LLM" style="sketch=0;points=[[0,0,0],[0.25,0,0],[0.5,0,0],[0.75,0,0],[1,0,0],[0,1,0],[0.25,1,0],[0.5,1,0],[0.75,1,0],[1,1,0],[0,0.25,0],[0,0.5,0],[0,0.75,0],[1,0.25,0],[1,0.5,0],[1,0.75,0]];outlineConnect=0;fontColor=#232F3E;fillColor=#01A88D;strokeColor=#ffffff;dashed=0;verticalLabelPosition=bottom;verticalAlign=top;align=center;html=1;fontSize=12;fontStyle=0;aspect=fixed;shape=mxgraph.aws4.resourceIcon;resIcon=mxgraph.aws4.bedrock;" parent="m1knhJvUVvAIt7_T2dCM-130" vertex="1">
          <mxGeometry x="60" y="45" width="50" height="50" as="geometry" />
        </mxCell>
        <mxCell id="m1knhJvUVvAIt7_T2dCM-175" style="edgeStyle=orthogonalEdgeStyle;rounded=0;orthogonalLoop=1;jettySize=auto;html=1;startArrow=classic;startFill=1;" parent="m1knhJvUVvAIt7_T2dCM-77" source="m1knhJvUVvAIt7_T2dCM-62" target="m1knhJvUVvAIt7_T2dCM-130" edge="1">
          <mxGeometry relative="1" as="geometry">
            <Array as="points">
              <mxPoint x="577" y="580" />
              <mxPoint x="577" y="580" />
            </Array>
          </mxGeometry>
        </mxCell>
        <mxCell id="m1knhJvUVvAIt7_T2dCM-183" value="" style="rounded=0;whiteSpace=wrap;html=1;fillColor=#f5f5f5;dashed=1;fontColor=#333333;strokeColor=#666666;" parent="m1knhJvUVvAIt7_T2dCM-77" vertex="1">
          <mxGeometry x="127" y="760" width="223" height="140" as="geometry" />
        </mxCell>
        <mxCell id="m1knhJvUVvAIt7_T2dCM-184" value="Monitering" style="text;html=1;align=center;verticalAlign=middle;whiteSpace=wrap;rounded=0;" parent="m1knhJvUVvAIt7_T2dCM-77" vertex="1">
          <mxGeometry x="208.5" y="760" width="60" height="30" as="geometry" />
        </mxCell>
        <mxCell id="m1knhJvUVvAIt7_T2dCM-185" value="" style="rounded=0;whiteSpace=wrap;html=1;fillColor=#f5f5f5;dashed=1;fontColor=#333333;strokeColor=#666666;" parent="m1knhJvUVvAIt7_T2dCM-77" vertex="1">
          <mxGeometry x="127" y="920" width="653" height="140" as="geometry" />
        </mxCell>
        <mxCell id="m1knhJvUVvAIt7_T2dCM-186" value="CI/CD" style="text;html=1;align=center;verticalAlign=middle;whiteSpace=wrap;rounded=0;" parent="m1knhJvUVvAIt7_T2dCM-77" vertex="1">
          <mxGeometry x="423.5" y="920" width="60" height="30" as="geometry" />
        </mxCell>
        <mxCell id="m1knhJvUVvAIt7_T2dCM-188" value="Open Search" style="sketch=0;points=[[0,0,0],[0.25,0,0],[0.5,0,0],[0.75,0,0],[1,0,0],[0,1,0],[0.25,1,0],[0.5,1,0],[0.75,1,0],[1,1,0],[0,0.25,0],[0,0.5,0],[0,0.75,0],[1,0.25,0],[1,0.5,0],[1,0.75,0]];outlineConnect=0;fontColor=#232F3E;fillColor=#8C4FFF;strokeColor=#ffffff;dashed=0;verticalLabelPosition=bottom;verticalAlign=top;align=center;html=1;fontSize=12;fontStyle=0;aspect=fixed;shape=mxgraph.aws4.resourceIcon;resIcon=mxgraph.aws4.elasticsearch_service;direction=south;" parent="m1knhJvUVvAIt7_T2dCM-77" vertex="1">
          <mxGeometry x="158.5" y="805" width="50" height="50" as="geometry" />
        </mxCell>
        <mxCell id="m1knhJvUVvAIt7_T2dCM-189" value="CloudWatch" style="sketch=0;points=[[0,0,0],[0.25,0,0],[0.5,0,0],[0.75,0,0],[1,0,0],[0,1,0],[0.25,1,0],[0.5,1,0],[0.75,1,0],[1,1,0],[0,0.25,0],[0,0.5,0],[0,0.75,0],[1,0.25,0],[1,0.5,0],[1,0.75,0]];points=[[0,0,0],[0.25,0,0],[0.5,0,0],[0.75,0,0],[1,0,0],[0,1,0],[0.25,1,0],[0.5,1,0],[0.75,1,0],[1,1,0],[0,0.25,0],[0,0.5,0],[0,0.75,0],[1,0.25,0],[1,0.5,0],[1,0.75,0]];outlineConnect=0;fontColor=#232F3E;fillColor=#E7157B;strokeColor=#ffffff;dashed=0;verticalLabelPosition=bottom;verticalAlign=top;align=center;html=1;fontSize=12;fontStyle=0;aspect=fixed;shape=mxgraph.aws4.resourceIcon;resIcon=mxgraph.aws4.cloudwatch_2;" parent="m1knhJvUVvAIt7_T2dCM-77" vertex="1">
          <mxGeometry x="268.5" y="805" width="50" height="50" as="geometry" />
        </mxCell>
        <mxCell id="m1knhJvUVvAIt7_T2dCM-190" value="ITQM" style="aspect=fixed;sketch=0;html=1;dashed=0;whitespace=wrap;verticalLabelPosition=bottom;verticalAlign=top;fillColor=#2875E2;strokeColor=#ffffff;points=[[0.005,0.63,0],[0.1,0.2,0],[0.9,0.2,0],[0.5,0,0],[0.995,0.63,0],[0.72,0.99,0],[0.5,1,0],[0.28,0.99,0]];shape=mxgraph.kubernetes.icon2;prIcon=user" parent="m1knhJvUVvAIt7_T2dCM-77" vertex="1">
          <mxGeometry x="183.5" y="966" width="50" height="48" as="geometry" />
        </mxCell>
        <mxCell id="m1knhJvUVvAIt7_T2dCM-191" value="GitLab" style="verticalLabelPosition=bottom;html=1;verticalAlign=top;align=center;strokeColor=none;fillColor=#00BEF2;shape=mxgraph.azure.git_repository;" parent="m1knhJvUVvAIt7_T2dCM-77" vertex="1">
          <mxGeometry x="306.5" y="965" width="50" height="50" as="geometry" />
        </mxCell>
        <mxCell id="m1knhJvUVvAIt7_T2dCM-206" style="edgeStyle=orthogonalEdgeStyle;rounded=0;orthogonalLoop=1;jettySize=auto;html=1;" parent="m1knhJvUVvAIt7_T2dCM-77" source="m1knhJvUVvAIt7_T2dCM-194" target="m1knhJvUVvAIt7_T2dCM-4" edge="1">
          <mxGeometry relative="1" as="geometry">
            <mxPoint x="699" y="620" as="targetPoint" />
            <Array as="points">
              <mxPoint x="699" y="620" />
              <mxPoint x="699" y="620" />
            </Array>
          </mxGeometry>
        </mxCell>
        <mxCell id="m1knhJvUVvAIt7_T2dCM-194" value="CodeDeply" style="sketch=0;points=[[0,0,0],[0.25,0,0],[0.5,0,0],[0.75,0,0],[1,0,0],[0,1,0],[0.25,1,0],[0.5,1,0],[0.75,1,0],[1,1,0],[0,0.25,0],[0,0.5,0],[0,0.75,0],[1,0.25,0],[1,0.5,0],[1,0.75,0]];outlineConnect=0;fontColor=#232F3E;fillColor=#C925D1;strokeColor=#ffffff;dashed=0;verticalLabelPosition=bottom;verticalAlign=top;align=center;html=1;fontSize=12;fontStyle=0;aspect=fixed;shape=mxgraph.aws4.resourceIcon;resIcon=mxgraph.aws4.codedeploy;" parent="m1knhJvUVvAIt7_T2dCM-77" vertex="1">
          <mxGeometry x="673.5" y="965" width="50" height="50" as="geometry" />
        </mxCell>
        <mxCell id="m1knhJvUVvAIt7_T2dCM-193" value="CodePipeline&lt;div&gt;BXCP&lt;/div&gt;" style="sketch=0;points=[[0,0,0],[0.25,0,0],[0.5,0,0],[0.75,0,0],[1,0,0],[0,1,0],[0.25,1,0],[0.5,1,0],[0.75,1,0],[1,1,0],[0,0.25,0],[0,0.5,0],[0,0.75,0],[1,0.25,0],[1,0.5,0],[1,0.75,0]];outlineConnect=0;fontColor=#232F3E;fillColor=#C925D1;strokeColor=#ffffff;dashed=0;verticalLabelPosition=bottom;verticalAlign=top;align=center;html=1;fontSize=12;fontStyle=0;aspect=fixed;shape=mxgraph.aws4.resourceIcon;resIcon=mxgraph.aws4.codepipeline;" parent="m1knhJvUVvAIt7_T2dCM-77" vertex="1">
          <mxGeometry x="428.5" y="965" width="50" height="50" as="geometry" />
        </mxCell>
        <mxCell id="m1knhJvUVvAIt7_T2dCM-200" style="edgeStyle=orthogonalEdgeStyle;rounded=0;orthogonalLoop=1;jettySize=auto;html=1;" parent="m1knhJvUVvAIt7_T2dCM-77" source="m1knhJvUVvAIt7_T2dCM-192" target="m1knhJvUVvAIt7_T2dCM-199" edge="1">
          <mxGeometry relative="1" as="geometry" />
        </mxCell>
        <mxCell id="m1knhJvUVvAIt7_T2dCM-192" value="CodeBuild" style="sketch=0;points=[[0,0,0],[0.25,0,0],[0.5,0,0],[0.75,0,0],[1,0,0],[0,1,0],[0.25,1,0],[0.5,1,0],[0.75,1,0],[1,1,0],[0,0.25,0],[0,0.5,0],[0,0.75,0],[1,0.25,0],[1,0.5,0],[1,0.75,0]];outlineConnect=0;fontColor=#232F3E;fillColor=#C925D1;strokeColor=#ffffff;dashed=0;verticalLabelPosition=bottom;verticalAlign=top;align=center;html=1;fontSize=12;fontStyle=0;aspect=fixed;shape=mxgraph.aws4.resourceIcon;resIcon=mxgraph.aws4.codebuild;" parent="m1knhJvUVvAIt7_T2dCM-77" vertex="1">
          <mxGeometry x="551.5" y="965" width="50" height="50" as="geometry" />
        </mxCell>
        <mxCell id="m1knhJvUVvAIt7_T2dCM-195" style="edgeStyle=orthogonalEdgeStyle;rounded=0;orthogonalLoop=1;jettySize=auto;html=1;entryX=0;entryY=0.5;entryDx=0;entryDy=0;entryPerimeter=0;" parent="m1knhJvUVvAIt7_T2dCM-77" source="m1knhJvUVvAIt7_T2dCM-190" target="m1knhJvUVvAIt7_T2dCM-191" edge="1">
          <mxGeometry relative="1" as="geometry" />
        </mxCell>
        <mxCell id="m1knhJvUVvAIt7_T2dCM-196" style="edgeStyle=orthogonalEdgeStyle;rounded=0;orthogonalLoop=1;jettySize=auto;html=1;entryX=0;entryY=0.5;entryDx=0;entryDy=0;entryPerimeter=0;" parent="m1knhJvUVvAIt7_T2dCM-77" source="m1knhJvUVvAIt7_T2dCM-191" target="m1knhJvUVvAIt7_T2dCM-193" edge="1">
          <mxGeometry relative="1" as="geometry" />
        </mxCell>
        <mxCell id="m1knhJvUVvAIt7_T2dCM-197" style="edgeStyle=orthogonalEdgeStyle;rounded=0;orthogonalLoop=1;jettySize=auto;html=1;entryX=0;entryY=0.5;entryDx=0;entryDy=0;entryPerimeter=0;" parent="m1knhJvUVvAIt7_T2dCM-77" source="m1knhJvUVvAIt7_T2dCM-193" target="m1knhJvUVvAIt7_T2dCM-192" edge="1">
          <mxGeometry relative="1" as="geometry" />
        </mxCell>
        <mxCell id="m1knhJvUVvAIt7_T2dCM-198" style="edgeStyle=orthogonalEdgeStyle;rounded=0;orthogonalLoop=1;jettySize=auto;html=1;entryX=0;entryY=0.5;entryDx=0;entryDy=0;entryPerimeter=0;" parent="m1knhJvUVvAIt7_T2dCM-77" source="m1knhJvUVvAIt7_T2dCM-192" target="m1knhJvUVvAIt7_T2dCM-194" edge="1">
          <mxGeometry relative="1" as="geometry" />
        </mxCell>
        <mxCell id="m1knhJvUVvAIt7_T2dCM-199" value="ECR" style="sketch=0;points=[[0,0,0],[0.25,0,0],[0.5,0,0],[0.75,0,0],[1,0,0],[0,1,0],[0.25,1,0],[0.5,1,0],[0.75,1,0],[1,1,0],[0,0.25,0],[0,0.5,0],[0,0.75,0],[1,0.25,0],[1,0.5,0],[1,0.75,0]];outlineConnect=0;fontColor=#232F3E;fillColor=#ED7100;strokeColor=#ffffff;dashed=0;verticalLabelPosition=bottom;verticalAlign=top;align=center;html=1;fontSize=12;fontStyle=0;aspect=fixed;shape=mxgraph.aws4.resourceIcon;resIcon=mxgraph.aws4.ecr;" parent="m1knhJvUVvAIt7_T2dCM-77" vertex="1">
          <mxGeometry x="551.5" y="820" width="50" height="50" as="geometry" />
        </mxCell>
        <mxCell id="m1knhJvUVvAIt7_T2dCM-187" style="edgeStyle=orthogonalEdgeStyle;rounded=0;orthogonalLoop=1;jettySize=auto;html=1;entryX=0;entryY=0.5;entryDx=0;entryDy=0;" parent="m1knhJvUVvAIt7_T2dCM-77" source="m1knhJvUVvAIt7_T2dCM-177" target="m1knhJvUVvAIt7_T2dCM-185" edge="1">
          <mxGeometry relative="1" as="geometry" />
        </mxCell>
        <mxCell id="m1knhJvUVvAIt7_T2dCM-177" value="Developer" style="sketch=0;outlineConnect=0;fontColor=#232F3E;gradientColor=none;fillColor=#232F3D;strokeColor=none;dashed=0;verticalLabelPosition=bottom;verticalAlign=top;align=center;html=1;fontSize=12;fontStyle=0;aspect=fixed;pointerEvents=1;shape=mxgraph.aws4.users;" parent="m1knhJvUVvAIt7_T2dCM-77" vertex="1">
          <mxGeometry x="-69.99508178384417" y="974.3744021739126" width="31.25" height="31.25" as="geometry" />
        </mxCell>
        <mxCell id="m1knhJvUVvAIt7_T2dCM-79" style="edgeStyle=orthogonalEdgeStyle;rounded=0;orthogonalLoop=1;jettySize=auto;html=1;entryX=0;entryY=0.5;entryDx=0;entryDy=0;entryPerimeter=0;" parent="1" source="m1knhJvUVvAIt7_T2dCM-74" target="m1knhJvUVvAIt7_T2dCM-75" edge="1">
          <mxGeometry relative="1" as="geometry" />
        </mxCell>
        <mxCell id="m1knhJvUVvAIt7_T2dCM-91" style="edgeStyle=orthogonalEdgeStyle;rounded=0;orthogonalLoop=1;jettySize=auto;html=1;" parent="1" source="m1knhJvUVvAIt7_T2dCM-75" target="m1knhJvUVvAIt7_T2dCM-74" edge="1">
          <mxGeometry relative="1" as="geometry" />
        </mxCell>
        <mxCell id="m1knhJvUVvAIt7_T2dCM-140" value="" style="group" parent="1" vertex="1" connectable="0">
          <mxGeometry x="-620" y="-1031.6599999999999" width="200" height="160" as="geometry" />
        </mxCell>
        <mxCell id="m1knhJvUVvAIt7_T2dCM-105" value="RDBMS" style="html=1;verticalLabelPosition=bottom;align=center;labelBackgroundColor=#ffffff;verticalAlign=top;strokeWidth=2;strokeColor=#0080F0;shadow=0;dashed=0;shape=mxgraph.ios7.icons.data;aspect=fixed;" parent="m1knhJvUVvAIt7_T2dCM-140" vertex="1">
          <mxGeometry x="39.99999999999989" y="59.786842105263155" width="33.27157894736842" height="42.10526315789473" as="geometry" />
        </mxCell>
        <mxCell id="m1knhJvUVvAIt7_T2dCM-205" value="" style="group" parent="m1knhJvUVvAIt7_T2dCM-140" vertex="1" connectable="0">
          <mxGeometry y="1.68" width="200" height="158.32" as="geometry" />
        </mxCell>
        <mxCell id="m1knhJvUVvAIt7_T2dCM-106" value="On-Premise" style="sketch=0;outlineConnect=0;gradientColor=none;html=1;whiteSpace=wrap;fontSize=12;fontStyle=0;shape=mxgraph.aws4.group;grIcon=mxgraph.aws4.group_on_premise;strokeColor=#666666;fillColor=none;verticalAlign=top;align=left;spacingLeft=30;fontColor=#AAB7B8;dashed=0;" parent="m1knhJvUVvAIt7_T2dCM-205" vertex="1">
          <mxGeometry width="200" height="158.32" as="geometry" />
        </mxCell>
        <mxCell id="m1knhJvUVvAIt7_T2dCM-173" value="Redis" style="html=1;verticalLabelPosition=bottom;align=center;labelBackgroundColor=#ffffff;verticalAlign=top;strokeWidth=2;strokeColor=#0080F0;shadow=0;dashed=0;shape=mxgraph.ios7.icons.data;aspect=fixed;" parent="m1knhJvUVvAIt7_T2dCM-205" vertex="1">
          <mxGeometry x="129.99999999999994" y="58.106842105262935" width="33.27157894736842" height="42.10526315789473" as="geometry" />
        </mxCell>
        <mxCell id="m1knhJvUVvAIt7_T2dCM-170" style="edgeStyle=orthogonalEdgeStyle;rounded=0;orthogonalLoop=1;jettySize=auto;html=1;" parent="1" source="m1knhJvUVvAIt7_T2dCM-65" target="m1knhJvUVvAIt7_T2dCM-106" edge="1">
          <mxGeometry relative="1" as="geometry" />
        </mxCell>
        <mxCell id="m1knhJvUVvAIt7_T2dCM-213" style="edgeStyle=orthogonalEdgeStyle;rounded=0;orthogonalLoop=1;jettySize=auto;html=1;" parent="1" source="m1knhJvUVvAIt7_T2dCM-210" target="m1knhJvUVvAIt7_T2dCM-106" edge="1">
          <mxGeometry relative="1" as="geometry" />
        </mxCell>
      </root>
    </mxGraphModel>
  </diagram>
</mxfile>
